<svg width="64" height="64" viewBox="0 0 64 64" fill="none" xmlns="http://www.w3.org/2000/svg">
<path d="M60.85 31.47C60.32 30.63 47.83 11 32 11C16.17 11 3.68005 30.63 3.15005 31.47C3.05072 31.6289 2.99805 31.8126 2.99805 32C2.99805 32.1874 3.05072 32.3711 3.15005 32.53C3.68005 33.37 16.17 53 32 53C47.83 53 60.32 33.37 60.85 32.53C60.9494 32.3711 61.0021 32.1874 61.0021 32C61.0021 31.8126 60.9494 31.6289 60.85 31.47ZM32 51C18.66 51 7.31005 35.13 5.20005 32C7.31005 28.87 18.66 13 32 13C45.34 13 56.69 28.87 58.8 32C56.69 35.13 45.34 51 32 51Z" fill="black"></path>
<path d="M32 17.1399C29.061 17.1399 26.188 18.0114 23.7442 19.6443C21.3005 21.2771 19.3959 23.5979 18.2712 26.3132C17.1465 29.0285 16.8522 32.0164 17.4256 34.8989C17.9989 37.7815 19.4142 40.4293 21.4924 42.5075C23.5706 44.5857 26.2184 46.001 29.101 46.5744C31.9835 47.1477 34.9714 46.8535 37.6867 45.7287C40.402 44.604 42.7228 42.6994 44.3557 40.2557C45.9885 37.812 46.86 34.9389 46.86 31.9999C46.8547 28.0604 45.2874 24.2838 42.5018 21.4981C39.7161 18.7125 35.9395 17.1452 32 17.1399V17.1399ZM32 44.8599C29.4566 44.8599 26.9702 44.1057 24.8554 42.6926C22.7406 41.2795 21.0923 39.2711 20.1189 36.9212C19.1456 34.5713 18.8909 31.9856 19.3871 29.491C19.8833 26.9964 21.1081 24.705 22.9066 22.9065C24.7051 21.108 26.9966 19.8832 29.4912 19.387C31.9858 18.8908 34.5715 19.1455 36.9213 20.1188C39.2712 21.0921 41.2796 22.7404 42.6927 24.8553C44.1058 26.9701 44.86 29.4564 44.86 31.9999C44.8547 35.409 43.4981 38.6769 41.0876 41.0874C38.677 43.498 35.4091 44.8546 32 44.8599Z" fill="black"></path>
</svg>